<svg width="0" height="0" class="hidden">
  <symbol xmlns="http://www.w3.org/2000/svg" xmlns:xlink="http://www.w3.org/1999/xlink" viewBox="0,0,256,256" id="icons8-telegram">
    <g fill="#ff5722" fill-rule="nonzero" stroke="none" stroke-width="1" stroke-linecap="butt" stroke-linejoin="miter" stroke-miterlimit="10" stroke-dasharray="" stroke-dashoffset="0" font-family="none" font-weight="none" font-size="none" text-anchor="none">
      <g transform="scale(5.12,5.12)">
        <path d="M25,2c12.703,0 23,10.297 23,23c0,12.703 -10.297,23 -23,23c-12.703,0 -23,-10.297 -23,-23c0,-12.703 10.297,-23 23,-23zM32.934,34.375c0.423,-1.298 2.405,-14.234 2.65,-16.783c0.074,-0.772 -0.17,-1.285 -0.648,-1.514c-0.578,-0.278 -1.434,-0.139 -2.427,0.219c-1.362,0.491 -18.774,7.884 -19.78,8.312c-0.954,0.405 -1.856,0.847 -1.856,1.487c0,0.45 0.267,0.703 1.003,0.966c0.766,0.273 2.695,0.858 3.834,1.172c1.097,0.303 2.346,0.04 3.046,-0.395c0.742,-0.461 9.305,-6.191 9.92,-6.693c0.614,-0.502 1.104,0.141 0.602,0.644c-0.502,0.502 -6.38,6.207 -7.155,6.997c-0.941,0.959 -0.273,1.953 0.358,2.351c0.721,0.454 5.906,3.932 6.687,4.49c0.781,0.558 1.573,0.811 2.298,0.811c0.725,0 1.107,-0.955 1.468,-2.064z"></path>
      </g>
    </g>
  </symbol>
  <symbol xmlns="http://www.w3.org/2000/svg" xmlns:xlink="http://www.w3.org/1999/xlink" viewBox="0,0,256,256" id="icons8-linkedin">
    <g fill="#ff5722" fill-rule="nonzero" stroke="none" stroke-width="1" stroke-linecap="butt" stroke-linejoin="miter" stroke-miterlimit="10" stroke-dasharray="" stroke-dashoffset="0" font-family="none" font-weight="none" font-size="none" text-anchor="none">
      <g transform="scale(5.12,5.12)">
        <path d="M41,4h-32c-2.76,0 -5,2.24 -5,5v32c0,2.76 2.24,5 5,5h32c2.76,0 5,-2.24 5,-5v-32c0,-2.76 -2.24,-5 -5,-5zM17,20v19h-6v-19zM11,14.47c0,-1.4 1.2,-2.47 3,-2.47c1.8,0 2.93,1.07 3,2.47c0,1.4 -1.12,2.53 -3,2.53c-1.8,0 -3,-1.13 -3,-2.53zM39,39h-6c0,0 0,-9.26 0,-10c0,-2 -1,-4 -3.5,-4.04h-0.08c-2.42,0 -3.42,2.06 -3.42,4.04c0,0.91 0,10 0,10h-6v-19h6v2.56c0,0 1.93,-2.56 5.81,-2.56c3.97,0 7.19,2.73 7.19,8.26z"></path>
      </g>
    </g>
  </symbol>
  <symbol xmlns="http://www.w3.org/2000/svg" xmlns:xlink="http://www.w3.org/1999/xlink" viewBox="0,0,256,256" id="icons8-twitter">
    <g fill="#ff5722" fill-rule="nonzero" stroke="none" stroke-width="1" stroke-linecap="butt" stroke-linejoin="miter" stroke-miterlimit="10" stroke-dasharray="" stroke-dashoffset="0" font-family="none" font-weight="none" font-size="none" text-anchor="none">
      <g transform="scale(5.12,5.12)">
        <path d="M50.0625,10.4375c-1.84766,0.82031 -3.82812,1.37109 -5.91016,1.62109c2.125,-1.27344 3.75781,-3.28906 4.52344,-5.6875c-1.98437,1.17578 -4.19141,2.03125 -6.53125,2.49219c-1.875,-2 -4.54687,-3.24609 -7.50391,-3.24609c-5.67969,0 -10.28516,4.60156 -10.28516,10.28125c0,0.80469 0.09375,1.58984 0.26953,2.34375c-8.54687,-0.42969 -16.12109,-4.52344 -21.19531,-10.74609c-0.88672,1.52344 -1.39062,3.28906 -1.39062,5.17187c0,3.56641 1.8125,6.71484 4.57422,8.5625c-1.6875,-0.05469 -3.27344,-0.51953 -4.66016,-1.28906c0,0.04297 0,0.08594 0,0.12891c0,4.98438 3.54688,9.13672 8.24609,10.08594c-0.85937,0.23438 -1.76953,0.35938 -2.70703,0.35938c-0.66406,0 -1.30859,-0.0625 -1.9375,-0.1875c1.3125,4.08203 5.10938,7.0625 9.60547,7.14453c-3.51562,2.75781 -7.94922,4.39844 -12.76953,4.39844c-0.83203,0 -1.64844,-0.04687 -2.44922,-0.14453c4.54687,2.92188 9.95312,4.62109 15.76172,4.62109c18.91406,0 29.25781,-15.66797 29.25781,-29.25391c0,-0.44531 -0.01172,-0.89453 -0.02734,-1.33203c2.00781,-1.44922 3.75,-3.26172 5.12891,-5.32422z"></path>
      </g>
    </g>
  </symbol>
</svg>