<svg width="0" height="0" class="hidden">
  <symbol fill="none" xmlns="http://www.w3.org/2000/svg" viewBox="0 0 28 23" id="ant-design_mail-outlined">
    <g clip-path="url(#clip0_20_1822)">
      <path d="M25.8125 1.60156H1.4375C0.918945 1.60156 0.5 2.02051 0.5 2.53906V21.2891C0.5 21.8076 0.918945 22.2266 1.4375 22.2266H25.8125C26.3311 22.2266 26.75 21.8076 26.75 21.2891V2.53906C26.75 2.02051 26.3311 1.60156 25.8125 1.60156ZM24.6406 4.84766V20.1172H2.60938V4.84766L1.80078 4.21777L2.95215 2.73828L4.20605 3.71387H23.0469L24.3008 2.73828L25.4521 4.21777L24.6406 4.84766ZM23.0469 3.71094L13.625 11.0352L4.20312 3.71094L2.94922 2.73535L1.79785 4.21484L2.60645 4.84473L12.6143 12.626C12.9021 12.8496 13.2561 12.9709 13.6206 12.9709C13.9851 12.9709 14.3391 12.8496 14.627 12.626L24.6406 4.84766L25.4492 4.21777L24.2979 2.73828L23.0469 3.71094Z" fill="#FF5722"></path>
    </g>
    <defs>
      <clipPath id="clip0_20_1822">
        <rect width="27" height="22" fill="white" transform="translate(0.5 0.914062)"></rect>
      </clipPath>
    </defs>
  </symbol>
  <symbol fill="none" xmlns="http://www.w3.org/2000/svg" viewBox="0 0 23 28" id="bx_bx-map">
    <g clip-path="url(#clip0_20_1810)">
      <path d="M11.4999 17.0859C14.4553 17.0859 16.8588 14.6893 16.8588 11.7422C16.8588 8.79511 14.4553 6.39844 11.4999 6.39844C8.54438 6.39844 6.14088 8.79511 6.14088 11.7422C6.14088 14.6893 8.54438 17.0859 11.4999 17.0859ZM11.4999 9.07031C12.9776 9.07031 14.1793 10.2686 14.1793 11.7422C14.1793 13.2157 12.9776 14.4141 11.4999 14.4141C10.0221 14.4141 8.82037 13.2157 8.82037 11.7422C8.82037 10.2686 10.0221 9.07031 11.4999 9.07031Z" fill="#FF5722"></path>
      <path d="M10.4412 27.525C10.6679 27.6864 10.9396 27.7732 11.2182 27.7732C11.4969 27.7732 11.7685 27.6864 11.9953 27.525C12.4026 27.2377 21.975 20.3456 21.9362 11.7422C21.9362 5.84937 17.1278 1.05469 11.2182 1.05469C5.30861 1.05469 0.500271 5.84937 0.500271 11.7355C0.461418 20.3456 10.0339 27.2377 10.4412 27.525ZM11.2182 3.72656C15.6514 3.72656 19.2567 7.32157 19.2567 11.7489C19.2848 17.6778 13.3779 23.0015 11.2182 24.7475C9.05989 23.0001 3.15162 17.6751 3.17976 11.7422C3.17976 7.32157 6.78501 3.72656 11.2182 3.72656Z" fill="#FF5722"></path>
    </g>
    <defs>
      <clipPath id="clip0_20_1810">
        <rect width="22" height="27" fill="white" transform="translate(0.5 0.914062)"></rect>
      </clipPath>
    </defs>
  </symbol>
  <symbol fill="none" xmlns="http://www.w3.org/2000/svg" viewBox="0 0 16 27" id="Vector">
    <path d="M12.2223 0.675049H3.33346C1.48901 0.675049 0.00012207 2.22689 0.00012207 4.14931V22.6787C0.00012207 24.6012 1.48901 26.153 3.33346 26.153H12.2223C14.0668 26.153 15.5557 24.6012 15.5557 22.6787V4.14931C15.5557 2.22689 14.0668 0.675049 12.2223 0.675049ZM10.0001 23.8368H5.55568V22.6787H10.0001V23.8368ZM13.6112 20.3625H1.94457V4.14931H13.6112V20.3625Z" fill="#FF5722"></path>
  </symbol>
</svg>